<svg width="239" height="45" viewBox="0 0 239 45" fill="none" xmlns="http://www.w3.org/2000/svg">
<path d="M0.853781 5.75656C0.270563 5.02528 -0.000741415 4.09027 0.0995526 3.15724C0.199847 2.2242 0.663523 1.36956 1.38858 0.781334C2.11364 0.193106 3.04068 -0.0805288 3.96577 0.0206267C4.89086 0.121782 5.73822 0.589442 6.32143 1.32073L6.38501 1.40371L16.3293 14.2284C16.4064 14.3295 16.4888 14.4265 16.5761 14.5188C15.3565 14.7203 14.207 15.2285 13.2337 15.9966C12.2604 16.7646 11.4947 17.7677 11.0075 18.9132C10.9451 18.8019 10.8738 18.6959 10.7943 18.5963L0.853781 5.75656Z" fill="#282828"/>
<path d="M34.9163 38.237C35.4811 38.9683 35.7389 39.8939 35.6341 40.8148C35.5293 41.7358 35.0703 42.5785 34.3558 43.1617C33.6414 43.7448 32.7286 44.0219 31.8137 43.9333C30.8988 43.8447 30.0549 43.3975 29.4636 42.6879L29.3925 42.5974L19.4483 29.7727C19.2852 29.5579 19.0954 29.3653 18.8835 29.1994C20.1308 29.0056 21.3076 28.4917 22.3011 27.707C23.2947 26.9223 24.0714 25.8931 24.5569 24.7183C24.6693 24.9589 24.8072 25.1866 24.9683 25.3972L34.9163 38.237Z" fill="#282828"/>
<path d="M16.8304 29.237C16.6464 29.3893 16.4808 29.5627 16.3367 29.7538L6.39249 42.5785C6.11974 42.9731 5.77015 43.3075 5.36504 43.5614C4.95993 43.8153 4.50779 43.9832 4.0362 44.0551C3.56461 44.1269 3.08346 44.1011 2.62208 43.9793C2.1607 43.8574 1.72876 43.642 1.35262 43.3463C0.976477 43.0505 0.664007 42.6806 0.434267 42.259C0.204527 41.8375 0.0623329 41.3732 0.0163557 40.8944C-0.0296215 40.4156 0.0215825 39.9324 0.166845 39.4742C0.312107 39.016 0.548383 38.5925 0.861262 38.2294L10.8018 25.4047C10.9001 25.2783 10.9888 25.1447 11.0673 25.0049C11.5947 26.144 12.4008 27.129 13.4096 27.8674C14.4184 28.6057 15.5969 29.0732 16.8341 29.2257" fill="#282828"/>
<path d="M19.123 14.6017C19.2398 14.4927 19.3474 14.3741 19.4447 14.2472L29.3889 1.42247C29.9733 0.725151 30.8026 0.282988 31.703 0.188617C32.6034 0.0942461 33.5051 0.35499 34.2192 0.916221C34.9332 1.47745 35.4042 2.29562 35.5335 3.19931C35.6628 4.103 35.4403 5.02208 34.9127 5.764L24.9684 18.5887C24.8234 18.7763 24.6981 18.9785 24.5944 19.1922C24.1421 18.023 23.4028 16.9888 22.4458 16.1865C21.4888 15.3843 20.3455 14.8403 19.123 14.6055" fill="#282828"/>
<path d="M22.5187 21.9986C22.5224 22.9219 22.2544 23.8256 21.7487 24.5952C21.2429 25.3648 20.5221 25.9658 19.6776 26.3221C18.833 26.6783 17.9027 26.7739 17.0043 26.5966C16.1058 26.4193 15.2798 25.9771 14.6306 25.3261C13.9815 24.6751 13.5384 23.8445 13.3575 22.9393C13.1767 22.0342 13.2661 21.0953 13.6146 20.2415C13.963 19.3877 14.5548 18.6574 15.315 18.1429C16.0752 17.6285 16.9696 17.3531 17.885 17.3516C19.1097 17.3506 20.2849 17.839 21.1534 18.7099C22.0218 19.5809 22.5128 20.7634 22.5187 21.9986Z" fill="#FF8500"/>
<path d="M58.1072 12.2104C54.7077 12.2104 51.5213 13.3948 49.341 15.3412L50.3881 16.85C52.4846 15.0245 55.1694 14.0333 57.9389 14.0625C62.2135 14.0625 64.4387 16.2615 64.4387 20.3617V22.1383H56.9254C50.8444 22.1383 48.7463 24.971 48.7463 28.313C48.7463 32.0849 51.7382 34.6159 56.6299 34.6159C60.4446 34.6159 63.1298 33.0506 64.5135 30.512V34.4575H66.5256V20.4597C66.533 15.0017 63.515 12.2104 58.1072 12.2104ZM64.4387 27.9433C63.1784 31.1156 60.6203 32.8921 56.9254 32.8921C53.0659 32.8921 50.8444 31.1156 50.8444 28.2413C50.8444 25.7028 52.4376 23.7979 56.9665 23.7979H64.4462L64.4387 27.9433Z" fill="#282828"/>
<path d="M83.8933 32.7224C78.7361 32.7224 74.9626 28.9995 74.9626 23.417C74.9626 17.8345 78.7361 14.1153 83.8933 14.1153C86.6197 14.1153 89.0506 15.1715 90.625 17.412L92.1771 16.2804C90.3745 13.5722 87.3564 12.218 83.8746 12.218C77.4608 12.218 72.8047 16.8274 72.8047 23.4245C72.8047 30.0217 77.4945 34.6273 83.8933 34.6273C87.3751 34.6273 90.3932 33.2316 92.1958 30.5649L90.6437 29.4333C89.0506 31.6851 86.6197 32.7224 83.8933 32.7224Z" fill="#282828"/>
<path d="M105.865 12.2104C102.469 12.2104 99.2829 13.3948 97.1025 15.3412L98.1497 16.85C100.246 15.0239 102.931 14.0326 105.7 14.0625C109.975 14.0625 112.197 16.2615 112.197 20.3617V22.1383H104.691C98.6134 22.1383 96.5154 24.971 96.5154 28.313C96.5154 32.0849 99.5073 34.6159 104.399 34.6159C108.214 34.6159 110.899 33.0506 112.283 30.512V34.4575H114.295V20.4597C114.295 15.0017 111.277 12.2104 105.865 12.2104ZM112.197 27.9433C110.94 31.1156 108.382 32.8921 104.691 32.8921C100.835 32.8921 98.6134 31.1156 98.6134 28.2413C98.6134 25.7028 100.207 23.7979 104.736 23.7979H112.215L112.197 27.9433Z" fill="#282828"/>
<path d="M140.324 3.07471V17.4987C138.562 14.1567 135.29 12.218 131.393 12.218C125.226 12.218 120.574 16.7858 120.574 23.4245C120.574 30.0631 125.237 34.6272 131.404 34.6272C135.346 34.6272 138.656 32.6809 140.38 29.2559V34.4575H142.433V3.07471H140.324ZM131.517 32.7224C126.486 32.7224 122.713 28.9504 122.713 23.4169C122.713 17.8835 126.486 14.1153 131.528 14.1153C136.569 14.1153 140.324 17.8797 140.324 23.4169C140.324 28.9542 136.562 32.7224 131.528 32.7224H131.517Z" fill="#282828"/>
<path d="M169.812 23.334C169.812 16.7783 165.369 12.2104 159.371 12.2104C153.372 12.2104 148.899 16.8613 148.899 23.417C148.899 29.9726 153.544 34.6273 160.167 34.6273C163.481 34.6273 166.499 33.3976 168.429 31.0326L167.213 29.6369C165.538 31.7078 162.98 32.7224 160.212 32.7224C154.976 32.7224 151.154 29.1692 150.945 23.9262H169.771C169.771 23.715 169.812 23.5037 169.812 23.334ZM150.986 22.2778C151.323 17.4573 154.726 14.0738 159.371 14.0738C164.016 14.0738 167.464 17.4987 167.759 22.2778H150.986Z" fill="#282828"/>
<path d="M203.568 12.2104C199.335 12.2104 196.145 14.3265 194.72 17.5402C193.545 14.0285 190.655 12.2104 186.713 12.2104C182.771 12.2104 179.749 14.0285 178.324 17.114V12.3802H176.312V34.4575H178.41V22.7003C178.41 17.4573 181.469 14.1153 186.417 14.1153C190.696 14.1153 193.254 16.7368 193.254 21.7271V34.4575H195.348V22.7003C195.348 17.4573 198.411 14.1153 203.359 14.1153C207.637 14.1153 210.192 16.7368 210.192 21.7271V34.4575H212.29V21.5574C212.29 15.3827 208.853 12.2104 203.568 12.2104Z" fill="#282828"/>
<path d="M238.08 12.3801L226.86 37.4599C225.106 41.4997 222.941 42.8199 220.068 42.8312H215.035V40.9679H220.05C222.062 40.9679 223.528 40.04 224.87 37.0375L226.045 34.3707L216.19 12.3801H218.415L227.178 32.1301L235.94 12.3801H238.08Z" fill="#282828"/>
</svg>
